grf
version=1
nRows=31
nColumns=19
inDegrees=yes
endheader
time	ground_force_1_vx	ground_force_1_vy	ground_force_1_vz	ground_force_1_px	ground_force_1_py	ground_force_1_pz	ground_moment_1_mx	ground_moment_1_my	ground_moment_1_mz	ground_force_2_vx	ground_force_2_vy	ground_force_2_vz	ground_force_2_px	ground_force_2_py	ground_force_2_pz	ground_moment_2_mx	ground_moment_2_my	ground_moment_2_mz
3.507000	6.927421	1382.741660	-390.467881	0.194656	0.000000	-0.785838	0.000000	12.451953	0.000000	-6.636249	1479.322863	430.554434	0.219045	0.000000	-1.580135	0.000000	-13.006867	-0.000000
3.508000	7.666263	1386.460231	-391.177950	0.194277	0.000000	-0.787142	0.000000	12.482590	0.000000	-6.354032	1480.287271	431.098234	0.219811	0.000000	-1.581236	0.000000	-13.032506	-0.000000
3.509000	8.441850	1390.085664	-391.900069	0.194477	0.000000	-0.787109	0.000000	12.515260	0.000000	-6.070668	1481.306701	431.685484	0.219172	0.000000	-1.579575	0.000000	-13.059021	-0.000000
3.510000	9.250572	1393.601508	-392.629341	0.193470	0.000000	-0.786188	0.000000	12.550016	0.000000	-5.788082	1482.375685	432.313013	0.219274	0.000000	-1.580342	0.000000	-13.086273	-0.000000
3.511000	10.088538	1396.992986	-393.361101	0.193041	0.000000	-0.786935	0.000000	12.586914	0.000000	-5.508151	1483.488917	432.977440	0.219180	0.000000	-1.580124	0.000000	-13.114094	-0.000000
3.512000	10.951639	1400.247063	-394.090978	0.193647	0.000000	-0.787753	0.000000	12.626037	0.000000	-5.232634	1484.640793	433.675242	0.218588	0.000000	-1.579957	0.000000	-13.142297	-0.000000
3.513000	11.835603	1403.352582	-394.814925	0.193534	0.000000	-0.785998	0.000000	12.667509	0.000000	-4.963130	1485.825262	434.402769	0.218468	0.000000	-1.579701	0.000000	-13.170697	-0.000000
3.514000	12.736177	1406.300096	-395.529209	0.193031	0.000000	-0.787916	0.000000	12.711480	0.000000	-4.701111	1487.036126	435.156197	0.218685	0.000000	-1.580721	0.000000	-13.199128	-0.000000
3.515000	13.649307	1409.081289	-396.230422	0.192833	0.000000	-0.788609	0.000000	12.758083	0.000000	-4.447974	1488.267222	435.931484	0.218342	0.000000	-1.579968	0.000000	-13.227463	-0.000000
3.516000	14.571182	1411.688964	-396.915554	0.192070	0.000000	-0.788286	0.000000	12.807416	0.000000	-4.205051	1489.512297	436.724348	0.218577	0.000000	-1.580659	0.000000	-13.255640	-0.000000
3.517000	15.498277	1414.117726	-397.582009	0.192407	0.000000	-0.787948	0.000000	12.859514	0.000000	-3.973508	1490.765058	437.530288	0.217534	0.000000	-1.580308	0.000000	-13.283657	-0.000000
3.518000	16.427426	1416.364140	-398.227516	0.192282	0.000000	-0.787326	0.000000	12.914343	0.000000	-3.754186	1492.019688	438.344670	0.219006	0.000000	-1.581867	0.000000	-13.311552	-0.000000
3.519000	17.355838	1418.426225	-398.850014	0.191662	0.000000	-0.787806	0.000000	12.971797	0.000000	-3.547506	1493.271703	439.162823	0.218519	0.000000	-1.580124	0.000000	-13.339376	-0.000000
3.520000	18.281051	1420.303331	-399.447666	0.191592	0.000000	-0.788510	0.000000	13.031728	0.000000	-3.353507	1494.518244	439.980061	0.219226	0.000000	-1.579954	0.000000	-13.367170	-0.000000
3.521000	19.200884	1421.996709	-400.018921	0.192058	0.000000	-0.788369	0.000000	13.093956	0.000000	-3.171986	1495.757240	440.791687	0.218132	0.000000	-1.579937	0.000000	-13.394960	-0.000000
3.522000	20.113395	1423.510062	-400.562559	0.190085	0.000000	-0.787084	-0.000000	13.158285	0.000000	-3.002614	1496.986494	441.593021	0.218994	0.000000	-1.582054	0.000000	-13.422754	-0.000000
3.523000	21.016861	1424.849042	-401.077693	0.191097	0.000000	-0.786978	-0.000000	13.224534	0.000000	-2.844930	1498.203571	442.379473	0.218194	0.000000	-1.580123	0.000000	-13.450539	-0.000000
3.524000	21.909822	1426.020135	-401.563749	0.190718	0.000000	-0.788366	-0.000000	13.292579	0.000000	-2.698265	1499.406129	443.146620	0.217551	0.000000	-1.580559	0.000000	-13.478265	-0.000000
3.525000	22.791142	1427.030358	-402.020490	0.191040	0.000000	-0.786971	-0.000000	13.362339	0.000000	-2.561727	1500.592223	443.890278	0.217842	0.000000	-1.580178	0.000000	-13.505873	-0.000000
3.526000	23.659961	1427.887559	-402.448124	0.190565	0.000000	-0.788006	-0.000000	13.433735	0.000000	-2.434213	1501.760421	444.606517	0.217745	0.000000	-1.580491	0.000000	-13.533318	-0.000000
3.527000	24.515582	1428.600506	-402.847365	0.190989	0.000000	-0.787563	-0.000000	13.506658	0.000000	-2.314432	1502.909753	445.291692	0.217514	0.000000	-1.580442	0.000000	-13.560580	-0.000000
3.528000	25.357379	1429.179007	-403.219394	0.189580	0.000000	-0.787394	-0.000000	13.580958	0.000000	-2.200915	1504.039552	445.942482	0.217249	0.000000	-1.580148	0.000000	-13.587656	-0.000000
3.529000	26.184686	1429.634032	-403.565768	0.189853	0.000000	-0.788251	-0.000000	13.656469	0.000000	-2.092053	1505.149204	446.555887	0.216935	0.000000	-1.579765	0.000000	-13.614579	-0.000000
3.530000	26.996649	1429.977477	-403.888351	0.190980	0.000000	-0.788655	-0.000000	13.733055	0.000000	-1.986128	1506.237774	447.129224	0.217803	0.000000	-1.582132	0.000000	-13.641435	-0.000000
3.531000	27.792158	1430.221851	-404.189299	0.190171	0.000000	-0.786522	-0.000000	13.810628	0.000000	-1.881336	1507.303348	447.660115	0.217211	0.000000	-1.580303	0.000000	-13.668355	-0.000000
3.532000	28.569894	1430.379954	-404.471044	0.190957	0.000000	-0.788961	-0.000000	13.889104	0.000000	-1.775806	1508.342601	448.146415	0.217319	0.000000	-1.580765	0.000000	-13.695493	-0.000000
3.533000	29.328366	1430.463956	-404.736263	0.191606	0.000000	-0.787945	-0.000000	13.968377	0.000000	-1.667578	1509.351187	448.586146	0.217103	0.000000	-1.580785	0.000000	-13.723001	-0.000000
3.534000	30.065915	1430.484197	-404.987845	0.190197	0.000000	-0.787973	-0.000000	14.048304	0.000000	-1.554602	1510.324354	448.977524	0.217116	0.000000	-1.580361	0.000000	-13.751022	-0.000000
3.535000	30.780716	1430.448897	-405.228835	0.190886	0.000000	-0.788117	-0.000000	14.128707	0.000000	-1.434758	1511.257250	449.319021	0.216821	0.000000	-1.580423	0.000000	-13.779681	-0.000000
3.536000	31.470795	1430.364656	-405.462281	0.190035	0.000000	-0.787532	-0.000000	14.209382	0.000000	-1.305885	1512.145055	449.609384	0.216592	0.000000	-1.580240	0.000000	-13.809083	-0.000000
3.537000	32.134047	1430.236781	-405.691081	0.189158	0.000000	-0.789541	-0.000000	14.290112	0.000000	-1.165809	1512.982998	449.847574	0.216900	0.000000	-1.580004	0.000000	-13.839310	-0.000000
